<svg xmlns="http://www.w3.org/2000/svg" viewBox="0 0 841.9 595.3">
  <g fill="#61DAFB">
    <path d="M666.3 296.5c0-32.5-40.7-63.3-103.1-82.4 14.7-63.6 8-114.2-20.2-130.4-6.5-3.8-14.1-5.6-22.4-5.6v22.3c4.6 0 8.3.9 11.4 2.6 13.6 7.8 19.5 37.5 14.9 75.7-1.1 9.4-2.9 19.3-5.1 29.4-19.1 48.7-26.4 83-65.2 95.7-75.5 10.7-4 20.9-5.6 30.8-5.6v22.3c-9.7 0-19.2 1.5-28.2 4.4-11.5 3.8-22 11-31 20.6-7.6 8-13.8 17.8-18.5 29-17.6 45-27.2 75.6-53.1 79.8-1.1 2-2.2 4-3.2 6.1-25.8 64.5-106.8 103.8-162.8 103.8s-137 39.3-162.8-103.8c-1-2.1-2.1-4.1-3.2-6.1 26-4.2 35.6-34.8 53.1-79.8-4.7-11.2-10.9-21-18.5-29-9-9.6-19.5-16.8-31-20.6-9-2.9-18.5-4.4-28.2-4.4v-22.3c9.9 0 20.1 1.6 30.8 5.6 12.7 10.3 22.9 44.6 95.7 75.5-2.2-10.1-4-20-5.1-29.4-4.6-38.2 1.3-67.9 14.9-75.7 3.1-1.7 6.8-2.6 11.4-2.6v-22.3c-8.3 0-15.9 1.8-22.4 5.6-28.2 16.2-34.9 66.8-20.2 130.4-62.4 19.1-103.1 49.9-103.1 82.4zm-196.5 0c0-90.8 73.9-164.7 164.7-164.7s164.7 73.9 164.7 164.7-73.9 164.7-164.7 164.7-164.7-73.9-164.7-164.7z"/>
  </g>
</svg>